<svg data-v-423bf9ae="" xmlns="http://www.w3.org/2000/svg" viewBox="0 0 356 90" class="iconLeft"><!----><!----><!----><g data-v-423bf9ae="" id="2ba3c1ad-b0aa-415e-9e25-9c1c5ae3aded" fill="black" transform="matrix(6.060606294135134,0,0,6.060606294135134,122.4539619545377,-10.63636521662567)"><path d="M2.63 6.65C2.03 6.65 1.50 6.85 1.09 7.20C0.66 7.57 0.42 8.12 0.42 8.74C0.42 9.04 0.67 9.30 0.98 9.30C1.29 9.30 1.54 9.04 1.54 8.74C1.54 8.44 1.64 8.20 1.83 8.04C2.03 7.87 2.31 7.77 2.63 7.77C2.91 7.77 3.18 7.90 3.37 8.11C3.58 8.34 3.71 8.64 3.71 8.96L3.71 9.87C3.39 9.67 3.02 9.56 2.63 9.56C1.71 9.56 0.92 10.15 0.59 10.99C0.71 10.92 0.84 10.89 0.98 10.89C1.29 10.89 1.54 11.05 1.68 11.30C1.74 11.20 1.79 11.10 1.88 11.02C2.07 10.81 2.35 10.68 2.63 10.68C2.91 10.68 3.18 10.81 3.37 11.02C3.46 11.10 3.51 11.20 3.57 11.30C3.61 11.23 3.65 11.17 3.71 11.12C3.85 10.98 4.05 10.89 4.27 10.89C4.41 10.89 4.55 10.92 4.66 10.99C4.72 11.02 4.77 11.06 4.83 11.12L4.83 8.96C4.83 7.69 3.84 6.65 2.63 6.65ZM4.27 11.13C3.96 11.13 3.71 11.38 3.71 11.69C3.71 12.01 3.58 12.32 3.37 12.54C3.16 12.77 2.90 12.88 2.62 12.88C2.34 12.88 2.07 12.77 1.88 12.54C1.65 12.32 1.54 12.01 1.54 11.69C1.54 11.38 1.29 11.13 0.98 11.13C0.67 11.13 0.42 11.38 0.42 11.69C0.42 12.96 1.41 14 2.62 14C3.84 14 4.83 12.96 4.83 11.69C4.83 11.38 4.58 11.13 4.27 11.13ZM6.79 4.79C6.79 4.48 6.54 4.23 6.23 4.23C5.92 4.23 5.67 4.48 5.67 4.79L5.67 6.68C5.81 6.54 6.02 6.45 6.23 6.45C6.45 6.45 6.65 6.54 6.79 6.68ZM9.52 6.69C9.21 6.69 8.97 6.93 8.96 7.22L8.96 7.25C8.96 7.57 8.83 7.88 8.62 8.11C8.54 8.20 8.43 8.29 8.32 8.34C8.18 8.41 8.04 8.44 7.87 8.44C7.71 8.44 7.57 8.41 7.43 8.34C7.32 8.29 7.21 8.20 7.13 8.11C6.92 7.88 6.79 7.57 6.79 7.25C6.79 6.94 6.54 6.69 6.23 6.69C5.92 6.69 5.67 6.94 5.67 7.25C5.67 7.91 5.94 8.51 6.36 8.93C6.48 9.06 6.64 9.17 6.79 9.27C6.99 9.38 7.20 9.46 7.43 9.52C7.57 9.55 7.73 9.56 7.87 9.56C8.02 9.56 8.18 9.55 8.32 9.52C8.72 9.44 9.10 9.23 9.39 8.93C9.81 8.51 10.08 7.91 10.08 7.25L10.08 7.22C10.07 6.93 9.81 6.69 9.52 6.69ZM6.20 9.10C5.98 8.89 5.80 8.64 5.67 8.36L5.67 13.44C5.67 13.75 5.92 14 6.23 14C6.54 14 6.79 13.75 6.79 13.44L6.79 10.54C6.80 10.23 6.92 9.97 7.13 9.74L7.17 9.70C7.04 9.66 6.92 9.60 6.79 9.53C6.58 9.42 6.37 9.28 6.20 9.10ZM8.57 9.70C8.60 9.72 8.61 9.73 8.62 9.74C8.83 9.98 8.96 10.28 8.96 10.60L8.96 13.44C8.96 13.75 9.21 14 9.52 14C9.83 14 10.08 13.75 10.08 13.44L10.08 10.60C10.08 10.04 9.88 9.51 9.55 9.10C9.28 9.38 8.95 9.58 8.57 9.70ZM12.04 4.79C12.04 4.48 11.79 4.23 11.48 4.23C11.17 4.23 10.92 4.48 10.92 4.79L10.92 6.68C11.06 6.54 11.27 6.45 11.48 6.45C11.70 6.45 11.90 6.54 12.04 6.68ZM14.77 6.69C14.46 6.69 14.22 6.93 14.21 7.22L14.21 7.25C14.21 7.57 14.08 7.88 13.87 8.11C13.79 8.20 13.68 8.29 13.57 8.34C13.43 8.41 13.29 8.44 13.12 8.44C12.96 8.44 12.82 8.41 12.68 8.34C12.57 8.29 12.46 8.20 12.38 8.11C12.17 7.88 12.04 7.57 12.04 7.25C12.04 6.94 11.79 6.69 11.48 6.69C11.17 6.69 10.92 6.94 10.92 7.25C10.92 7.91 11.19 8.51 11.61 8.93C11.73 9.06 11.89 9.17 12.04 9.27C12.24 9.38 12.45 9.46 12.68 9.52C12.82 9.55 12.98 9.56 13.12 9.56C13.27 9.56 13.43 9.55 13.57 9.52C13.97 9.44 14.35 9.23 14.64 8.93C15.06 8.51 15.33 7.91 15.33 7.25L15.33 7.22C15.32 6.93 15.06 6.69 14.77 6.69ZM11.45 9.10C11.23 8.89 11.05 8.64 10.92 8.36L10.92 13.44C10.92 13.75 11.17 14 11.48 14C11.79 14 12.04 13.75 12.04 13.44L12.04 10.54C12.05 10.23 12.17 9.97 12.38 9.74L12.42 9.70C12.29 9.66 12.17 9.60 12.04 9.53C11.83 9.42 11.62 9.28 11.45 9.10ZM13.82 9.70C13.85 9.72 13.86 9.73 13.87 9.74C14.08 9.98 14.21 10.28 14.21 10.60L14.21 13.44C14.21 13.75 14.46 14 14.77 14C15.08 14 15.33 13.75 15.33 13.44L15.33 10.60C15.33 10.04 15.13 9.51 14.80 9.10C14.53 9.38 14.20 9.58 13.82 9.70ZM20.58 9.02C20.55 9.31 20.31 9.53 20.02 9.53C19.71 9.53 19.47 9.31 19.46 9.02L19.46 8.97C19.46 8.65 19.33 8.34 19.12 8.12C18.91 7.91 18.65 7.78 18.37 7.78C18.09 7.78 17.82 7.91 17.63 8.12C17.40 8.34 17.29 8.65 17.29 8.97C17.29 9.28 17.04 9.53 16.73 9.53C16.42 9.53 16.17 9.28 16.17 8.97C16.17 7.70 17.16 6.66 18.37 6.66C19.59 6.66 20.58 7.70 20.58 8.97ZM16.73 9.77C16.95 9.77 17.15 9.69 17.29 9.55L17.29 13.44C17.29 13.75 17.04 14 16.73 14C16.42 14 16.17 13.75 16.17 13.44L16.17 9.55C16.31 9.69 16.51 9.77 16.73 9.77ZM20.58 13.44C20.58 13.75 20.33 14 20.02 14C19.71 14 19.46 13.75 19.46 13.44L19.46 9.55C19.60 9.69 19.80 9.77 20.02 9.77C20.23 9.77 20.43 9.69 20.58 9.55ZM22.54 5.32C22.54 5.64 22.29 5.89 21.98 5.89C21.67 5.89 21.42 5.64 21.42 5.32C21.42 5.01 21.67 4.76 21.98 4.76C22.29 4.76 22.54 5.01 22.54 5.32ZM22.54 8.99C22.40 8.85 22.20 8.76 21.98 8.76C21.77 8.76 21.56 8.85 21.42 8.99L21.42 7.21C21.42 6.90 21.67 6.65 21.98 6.65C22.29 6.65 22.54 6.90 22.54 7.21ZM22.54 9.56L22.54 13.44C22.54 13.75 22.29 14 21.98 14C21.67 14 21.42 13.75 21.42 13.44L21.42 9.56L21.42 9.51C21.45 9.23 21.69 9.00 21.98 9.00C22.27 9.00 22.51 9.23 22.54 9.51ZM23.24 7.20C23.23 6.89 23.46 6.62 23.77 6.61C24.08 6.59 24.35 6.83 24.36 7.14L24.44 9.03C24.30 8.90 24.12 8.82 23.91 8.82L23.87 8.82C23.66 8.83 23.48 8.92 23.32 9.07ZM28.07 9.09C27.93 8.93 27.73 8.85 27.52 8.83L27.48 8.83C27.29 8.83 27.09 8.90 26.95 9.03L27.03 7.14C27.05 6.83 27.31 6.59 27.62 6.61C27.93 6.62 28.17 6.89 28.15 7.20ZM25.70 14.13C25.52 14.13 25.34 14.04 25.24 13.89L23.63 11.56C23.58 11.47 23.55 11.37 23.53 11.27L23.35 9.65C23.34 9.34 23.58 9.07 23.88 9.06C24.19 9.04 24.46 9.28 24.47 9.59L24.65 11.06L25.70 12.59L26.75 11.05L26.92 9.60C26.94 9.30 27.20 9.06 27.51 9.07C27.82 9.09 28.06 9.35 28.04 9.66L27.86 11.26C27.86 11.37 27.82 11.47 27.76 11.55L26.17 13.89C26.05 14.04 25.89 14.13 25.70 14.13ZM33.26 8.96C33.26 9.03 33.25 9.09 33.24 9.14C33.17 9.37 32.94 9.52 32.70 9.52C32.40 9.52 32.14 9.27 32.14 8.96C32.14 8.93 32.14 8.90 32.13 8.88C32.12 8.58 32.00 8.32 31.81 8.11C31.60 7.90 31.33 7.77 31.05 7.77C30.77 7.77 30.51 7.90 30.31 8.11C30.11 8.32 30.00 8.58 29.97 8.88L29.97 8.96C29.97 9.27 29.72 9.52 29.41 9.52C29.16 9.52 28.95 9.37 28.88 9.14C28.87 9.09 28.85 9.03 28.85 8.96L28.85 8.88C28.85 8.78 28.87 8.69 28.88 8.60C29.05 7.50 29.96 6.65 31.05 6.65C32.16 6.65 33.07 7.50 33.24 8.60C33.25 8.69 33.25 8.78 33.26 8.88ZM33.26 11.91C33.26 12.53 33.03 13.08 32.59 13.45C32.19 13.80 31.64 14 31.05 14C29.85 14 28.85 12.96 28.85 11.69L28.85 9.53C28.91 9.58 28.97 9.63 29.02 9.66C29.13 9.73 29.27 9.76 29.41 9.76C29.64 9.76 29.83 9.67 29.97 9.53C30.03 9.48 30.07 9.42 30.11 9.35C30.16 9.45 30.23 9.55 30.31 9.63C30.51 9.84 30.77 9.97 31.05 9.97C31.33 9.97 31.60 9.84 31.81 9.63C31.89 9.55 31.95 9.45 32.00 9.35C32.14 9.60 32.40 9.76 32.70 9.76C32.84 9.76 32.97 9.73 33.10 9.66C32.76 10.50 31.98 11.09 31.05 11.09C30.66 11.09 30.30 10.98 29.97 10.79L29.97 11.69C29.97 12.01 30.09 12.32 30.31 12.54C30.51 12.75 30.77 12.88 31.05 12.88C31.37 12.88 31.65 12.78 31.85 12.61C32.05 12.45 32.14 12.21 32.14 11.91C32.14 11.61 32.40 11.35 32.70 11.35C33.01 11.35 33.26 11.61 33.26 11.91ZM34.10 8.97C34.10 8.74 34.15 8.50 34.20 8.29C34.48 7.35 35.32 6.66 36.29 6.66L36.30 6.66C37.52 6.66 38.51 7.70 38.51 8.97C38.51 9.07 38.49 9.16 38.46 9.23C38.36 9.41 38.16 9.53 37.95 9.53C37.73 9.53 37.53 9.41 37.45 9.23C37.41 9.16 37.39 9.07 37.39 8.97C37.39 8.65 37.27 8.34 37.06 8.12C36.85 7.91 36.58 7.78 36.30 7.78C36.02 7.78 35.76 7.91 35.56 8.12C35.34 8.34 35.22 8.65 35.22 8.97C35.22 9.07 35.21 9.16 35.17 9.23C35.07 9.41 34.89 9.53 34.66 9.53C34.44 9.53 34.26 9.41 34.16 9.23C34.13 9.16 34.10 9.07 34.10 8.97ZM37.16 11.69C37.16 11.70 37.14 11.72 37.14 11.73L34.75 9.77C35.15 9.73 35.46 9.38 35.46 8.97L35.46 8.90L37.88 10.89C37.48 10.92 37.16 11.27 37.16 11.69ZM38.51 11.69C38.51 11.93 38.47 12.17 38.40 12.38C38.12 13.31 37.30 14 36.32 14L36.30 14C35.10 14 34.10 12.96 34.10 11.69C34.10 11.59 34.13 11.51 34.16 11.44C34.26 11.26 34.44 11.13 34.66 11.13C34.89 11.13 35.07 11.26 35.17 11.44C35.21 11.51 35.22 11.59 35.22 11.69C35.22 12.01 35.34 12.32 35.56 12.54C35.76 12.75 36.02 12.88 36.30 12.88C36.58 12.88 36.85 12.75 37.06 12.54C37.27 12.32 37.39 12.01 37.39 11.69C37.39 11.59 37.41 11.51 37.45 11.44C37.53 11.26 37.73 11.13 37.95 11.13C38.16 11.13 38.36 11.26 38.46 11.44C38.49 11.51 38.51 11.59 38.51 11.69Z"></path></g><!----><g data-v-423bf9ae="" id="579a8011-87ac-4493-89f8-1df1c1ad1f6a" transform="matrix(1.2173862431044935,0,0,1.2173862431044935,-8.02141113225317,-13.39124867414943)" stroke="none" fill="black"><path stroke-width=".15" stroke-miterlimit="10" d="M17.034 18.918C14.156 17.005 10.85 14.449 7 11c2.999 21.988 31.6 32.703 40.368 41.415-4.237-11.467-23.2-22.39-30.334-33.497z"></path><path stroke="#010202" stroke-width=".15" stroke-miterlimit="10" d="M39.569 27.778c-5.509-4.335-9.848-.656-21.917-8.46 8.663 11.755 27.494 22.578 30.232 33.646.996 1.087 1.682 2.147 1.928 3.195l9.993-11.744c-5.517-4.503-17.8-14.487-20.236-16.637z"></path><path d="M69.219 53.903a75.913 75.913 0 0 1-3.32-2.669c-2.006 3.304-4.346 6.038-7.32 8.716.953.831 1.952 1.873 3.007 3.171 2.991-2.772 5.449-5.685 7.633-9.218zM73.604 57.265c-1.1-.864-2.201-1.698-3.283-2.52-2.138 3.609-4.648 6.537-7.915 9.42a53.777 53.777 0 0 1 2.416 3.496c3.523-3.118 6.325-6.349 8.782-10.396zM77.931 60.959a55.144 55.144 0 0 0-3.248-2.829c-2.402 4.136-5.27 7.374-9.166 10.645.36.587.725 1.196 1.098 1.841.333.621.848 1.154 1.465 1.648 4.031-3.408 7.149-6.866 9.851-11.305zM85.896 69.479c-.836-.74-1.826-1.757-3.146-3.242-2.211 3.771-4.821 6.799-8.253 9.794 1.261.782 2.459 1.698 3.443 2.854 3.137-2.841 5.696-5.8 7.956-9.406zM81.801 65.155c-.36-.416-.735-.853-1.143-1.333a34.403 34.403 0 0 0-1.724-1.868c-2.528 4.305-5.581 7.638-9.789 11.07 1.226.774 2.693 1.483 4.165 2.308 3.387-3.045 6.101-6.222 8.491-10.177zM90.26 72.191c-1.322-.661-2.242-1.084-3.276-1.835-2.211 3.665-4.832 6.626-8.259 9.579a9.536 9.536 0 0 1 1.217 2.717c1.29 6.447 10.318-2.58 12.468-5.16 2.149-2.578-.288-4.299-2.15-5.301zM64.849 50.297c-1.739-1.605-3.228-3.292-4.257-5.204L50.779 56.83c2.105 0 4.28.451 6.749 2.274 2.849-2.66 5.216-5.454 7.321-8.807z"></path><g><path d="M61.84 42.724c.324.271-.276 1.528-1.336 2.794l-9.186 10.976c-1.06 1.266-2.191 2.079-2.515 1.808-.324-.271.277-1.528 1.336-2.794l9.186-10.976c1.06-1.266 2.192-2.079 2.515-1.808z"></path></g></g><!----></svg>