<svg data-v-423bf9ae="" xmlns="http://www.w3.org/2000/svg" viewBox="0 0 563 90" class="iconLeft"><!----><!----><!----><g data-v-423bf9ae="" id="2b8e5e01-281d-4ff7-b022-27f6a15cce3d" fill="black" transform="matrix(5.628517904206723,0,0,5.628517904206723,132.9893274847413,-17.02626767383979)"><path d="M8.72 16.19L8.72 15.11L8.72 15.11Q8.70 15.19 8.41 15.52L8.41 15.52L8.41 15.52Q8.20 15.76 7.86 15.95L7.86 15.95L7.86 15.95Q7.52 16.14 6.95 16.25L6.95 16.25L6.95 16.25Q6.38 16.35 5.45 16.35L5.45 16.35L5.45 16.35Q4.21 16.35 3.34 16.23L3.34 16.23L3.34 16.23Q2.46 16.10 1.91 15.84L1.91 15.84L1.91 15.84Q1.35 15.57 1.10 15.16L1.10 15.16L1.10 15.16Q0.84 14.75 0.84 14.18L0.84 14.18L0.84 14.18Q0.84 13.59 0.98 13.18L0.98 13.18L0.98 13.18Q1.12 12.76 1.39 12.48L1.39 12.48L1.39 12.48Q1.66 12.20 2.04 12.04L2.04 12.04L2.04 12.04Q2.43 11.89 2.92 11.81L2.92 11.81L2.92 11.81Q3.40 11.72 3.99 11.70L3.99 11.70L3.99 11.70Q4.57 11.68 5.22 11.68L5.22 11.68L5.22 11.68Q6.16 11.68 6.79 11.76L6.79 11.76L6.79 11.76Q7.42 11.84 7.82 11.96L7.82 11.96L7.82 11.96Q8.22 12.08 8.42 12.22L8.42 12.22L8.42 12.22Q8.63 12.35 8.72 12.47L8.72 12.47L8.72 12.47Q8.72 11.70 8.65 11.16L8.65 11.16L8.65 11.16Q8.59 10.62 8.44 10.26L8.44 10.26L8.44 10.26Q8.29 9.90 8.06 9.68L8.06 9.68L8.06 9.68Q7.83 9.47 7.49 9.36L7.49 9.36L7.49 9.36Q7.15 9.25 6.70 9.22L6.70 9.22L6.70 9.22Q6.25 9.19 5.67 9.19L5.67 9.19L5.67 9.19Q4.76 9.19 4.17 9.23L4.17 9.23L4.17 9.23Q3.58 9.28 3.23 9.41L3.23 9.41L3.23 9.41Q2.88 9.54 2.73 9.77L2.73 9.77L2.73 9.77Q2.59 9.99 2.59 10.36L2.59 10.36L1.28 10.36L1.28 10.36Q1.28 9.74 1.50 9.31L1.50 9.31L1.50 9.31Q1.72 8.88 2.24 8.61L2.24 8.61L2.24 8.61Q2.75 8.34 3.60 8.22L3.60 8.22L3.60 8.22Q4.44 8.09 5.67 8.09L5.67 8.09L5.67 8.09Q6.87 8.09 7.70 8.29L7.70 8.29L7.70 8.29Q8.54 8.49 9.05 8.99L9.05 8.99L9.05 8.99Q9.57 9.49 9.80 10.33L9.80 10.33L9.80 10.33Q10.03 11.18 10.03 12.47L10.03 12.47L10.03 16.19L8.72 16.19ZM5.67 15.31L5.67 15.31L5.67 15.31Q6.54 15.31 7.12 15.23L7.12 15.23L7.12 15.23Q7.70 15.15 8.06 14.98L8.06 14.98L8.06 14.98Q8.42 14.82 8.57 14.57L8.57 14.57L8.57 14.57Q8.72 14.33 8.72 14L8.72 14L8.72 14Q8.72 13.67 8.54 13.44L8.54 13.44L8.54 13.44Q8.37 13.21 7.96 13.07L7.96 13.07L7.96 13.07Q7.55 12.93 6.88 12.86L6.88 12.86L6.88 12.86Q6.21 12.80 5.23 12.80L5.23 12.80L5.23 12.80Q4.25 12.80 3.64 12.83L3.64 12.83L3.64 12.83Q3.04 12.87 2.71 12.99L2.71 12.99L2.71 12.99Q2.38 13.11 2.27 13.35L2.27 13.35L2.27 13.35Q2.15 13.59 2.15 14L2.15 14L2.15 14Q2.15 14.41 2.27 14.67L2.27 14.67L2.27 14.67Q2.39 14.92 2.76 15.07L2.76 15.07L2.76 15.07Q3.13 15.21 3.82 15.26L3.82 15.26L3.82 15.26Q4.52 15.31 5.67 15.31ZM11.78 16.19L11.78 5.69L13.09 5.69L13.09 11.43L13.53 11.43L18.34 8.31L20.31 8.31L14.73 11.98L20.53 16.19L18.56 16.19L13.53 12.41L13.09 12.41L13.09 16.19L11.78 16.19ZM21.40 16.19L21.40 5.69L22.72 5.69L22.72 11.43L23.15 11.43L27.97 8.31L29.93 8.31L24.36 11.98L30.15 16.19L28.18 16.19L23.15 12.41L22.72 12.41L22.72 16.19L21.40 16.19ZM40.22 16.19L38.90 16.19L38.90 11.81L38.90 11.81Q38.90 11.08 38.79 10.58L38.79 10.58L38.79 10.58Q38.68 10.08 38.36 9.77L38.36 9.77L38.36 9.77Q38.03 9.46 37.43 9.32L37.43 9.32L37.43 9.32Q36.83 9.19 35.84 9.19L35.84 9.19L35.84 9.19Q34.77 9.19 34.09 9.34L34.09 9.34L34.09 9.34Q33.41 9.50 33.02 9.79L33.02 9.79L33.02 9.79Q32.63 10.08 32.49 10.48L32.49 10.48L32.49 10.48Q32.34 10.88 32.34 11.38L32.34 11.38L32.34 16.19L31.03 16.19L31.03 8.31L32.34 8.31L32.34 9.63L32.34 9.63Q32.48 9.29 32.75 9.05L32.75 9.05L32.75 9.05Q33.02 8.80 33.35 8.63L33.35 8.63L33.35 8.63Q33.69 8.46 34.08 8.36L34.08 8.36L34.08 8.36Q34.47 8.25 34.86 8.19L34.86 8.19L34.86 8.19Q35.25 8.13 35.61 8.11L35.61 8.11L35.61 8.11Q35.98 8.09 36.28 8.09L36.28 8.09L36.28 8.09Q37.15 8.09 37.79 8.20L37.79 8.20L37.79 8.20Q38.42 8.31 38.86 8.52L38.86 8.52L38.86 8.52Q39.30 8.74 39.57 9.05L39.57 9.05L39.57 9.05Q39.83 9.37 39.98 9.78L39.98 9.78L39.98 9.78Q40.13 10.19 40.17 10.70L40.17 10.70L40.17 10.70Q40.22 11.21 40.22 11.81L40.22 11.81L40.22 16.19ZM42.41 16.19L42.41 8.31L43.72 8.31L43.72 16.19L42.41 16.19ZM43.72 5.69L43.72 7L42.41 7L42.41 5.69L43.72 5.69ZM45.47 8.31L49.63 16.19L51.38 16.19L55.54 8.31L54.00 8.31L50.50 15.31L47.00 8.31L45.47 8.31ZM61.00 16.34L61.00 16.34L61.00 16.34Q59.69 16.34 58.78 16.16L58.78 16.16L58.78 16.16Q57.86 15.98 57.29 15.53L57.29 15.53L57.29 15.53Q56.71 15.09 56.45 14.34L56.45 14.34L56.45 14.34Q56.19 13.60 56.19 12.47L56.19 12.47L56.19 12.47Q56.19 11.18 56.45 10.33L56.45 10.33L56.45 10.33Q56.71 9.49 57.29 8.99L57.29 8.99L57.29 8.99Q57.86 8.49 58.78 8.29L58.78 8.29L58.78 8.29Q59.69 8.09 61.00 8.09L61.00 8.09L61.00 8.09Q61.94 8.09 62.63 8.23L62.63 8.23L62.63 8.23Q63.31 8.37 63.80 8.63L63.80 8.63L63.80 8.63Q64.29 8.89 64.60 9.26L64.60 9.26L64.60 9.26Q64.90 9.63 65.07 10.03L65.07 10.03L65.07 10.03Q65.25 10.44 65.31 10.99L65.31 10.99L65.31 10.99Q65.38 11.53 65.38 12.14L65.38 12.14L65.27 12.58L57.50 12.58L57.50 12.58Q57.50 13.48 57.68 14.06L57.68 14.06L57.68 14.06Q57.86 14.64 58.27 14.90L58.27 14.90L58.27 14.90Q58.68 15.17 59.35 15.24L59.35 15.24L59.35 15.24Q60.02 15.31 61.00 15.31L61.00 15.31L61.00 15.31Q61.91 15.31 62.50 15.26L62.50 15.26L62.50 15.26Q63.09 15.21 63.44 15.07L63.44 15.07L63.44 15.07Q63.79 14.92 63.93 14.67L63.93 14.67L63.93 14.67Q64.07 14.41 64.07 14L64.07 14L65.38 14L65.38 14Q65.38 14.64 65.16 15.08L65.16 15.08L65.16 15.08Q64.93 15.53 64.42 15.81L64.42 15.81L64.42 15.81Q63.91 16.08 63.07 16.21L63.07 16.21L63.07 16.21Q62.23 16.34 61.00 16.34ZM61.00 9.19L61.00 9.19L61.00 9.19Q60.35 9.19 59.83 9.21L59.83 9.21L59.83 9.21Q59.32 9.24 58.93 9.33L58.93 9.33L58.93 9.33Q58.54 9.43 58.27 9.60L58.27 9.60L58.27 9.60Q58.00 9.78 57.83 10.01L57.83 10.01L57.83 10.01Q57.66 10.25 57.58 10.67L57.58 10.67L57.58 10.67Q57.50 11.10 57.50 11.70L57.50 11.70L64.07 11.70L64.07 11.70Q64.07 10.90 63.90 10.45L63.90 10.45L63.90 10.45Q63.72 9.99 63.36 9.70L63.36 9.70L63.36 9.70Q62.99 9.41 62.41 9.30L62.41 9.30L62.41 9.30Q61.82 9.19 61.00 9.19ZM71.72 12.60L71.72 12.60L71.72 12.60Q72.49 12.60 73.03 12.62L73.03 12.62L73.03 12.62Q73.57 12.65 73.93 12.70L73.93 12.70L73.93 12.70Q74.30 12.76 74.51 12.85L74.51 12.85L74.51 12.85Q74.72 12.94 74.83 13.11L74.83 13.11L74.83 13.11Q74.94 13.29 74.97 13.46L74.97 13.46L74.97 13.46Q75.00 13.64 75.00 13.86L75.00 13.86L75.00 13.86Q75.00 14.11 74.97 14.31L74.97 14.31L74.97 14.31Q74.94 14.51 74.83 14.68L74.83 14.68L74.83 14.68Q74.71 14.84 74.48 14.96L74.48 14.96L74.48 14.96Q74.26 15.07 73.87 15.16L73.87 15.16L73.87 15.16Q73.48 15.24 72.90 15.27L72.90 15.27L72.90 15.27Q72.32 15.31 71.50 15.31L71.50 15.31L71.50 15.31Q70.60 15.31 70.01 15.26L70.01 15.26L70.01 15.26Q69.42 15.21 69.07 15.07L69.07 15.07L69.07 15.07Q68.72 14.92 68.58 14.67L68.58 14.67L68.58 14.67Q68.44 14.41 68.44 14L68.44 14L67.13 14L67.13 14Q67.13 14.62 67.35 15.05L67.35 15.05L67.35 15.05Q67.57 15.48 68.09 15.75L68.09 15.75L68.09 15.75Q68.60 16.02 69.44 16.15L69.44 16.15L69.44 16.15Q70.27 16.27 71.50 16.27L71.50 16.27L71.50 16.27Q72.49 16.27 73.23 16.21L73.23 16.21L73.23 16.21Q73.97 16.15 74.50 16.03L74.50 16.03L74.50 16.03Q75.04 15.91 75.39 15.72L75.39 15.72L75.39 15.72Q75.74 15.52 75.95 15.25L75.95 15.25L75.95 15.25Q76.15 14.98 76.23 14.63L76.23 14.63L76.23 14.63Q76.32 14.28 76.32 13.84L76.32 13.84L76.32 13.84Q76.32 13.39 76.23 13.05L76.23 13.05L76.23 13.05Q76.15 12.71 75.95 12.47L75.95 12.47L75.95 12.47Q75.75 12.22 75.41 12.00L75.41 12.00L75.41 12.00Q75.08 11.79 74.57 11.69L74.57 11.69L74.57 11.69Q74.05 11.59 73.35 11.55L73.35 11.55L73.35 11.55Q72.65 11.50 71.72 11.50L71.72 11.50L71.72 11.50Q70.96 11.50 70.42 11.50L70.42 11.50L70.42 11.50Q69.88 11.50 69.51 11.46L69.51 11.46L69.51 11.46Q69.15 11.42 68.93 11.35L68.93 11.35L68.93 11.35Q68.72 11.27 68.61 11.13L68.61 11.13L68.61 11.13Q68.50 10.99 68.47 10.76L68.47 10.76L68.47 10.76Q68.44 10.54 68.44 10.31L68.44 10.31L68.44 10.31Q68.44 9.91 68.62 9.69L68.62 9.69L68.62 9.69Q68.80 9.46 69.21 9.35L69.21 9.35L69.21 9.35Q69.62 9.24 70.29 9.21L70.29 9.21L70.29 9.21Q70.96 9.19 71.94 9.19L71.94 9.19L71.94 9.19Q72.84 9.19 73.44 9.24L73.44 9.24L73.44 9.24Q74.03 9.29 74.38 9.42L74.38 9.42L74.38 9.42Q74.72 9.56 74.86 9.79L74.86 9.79L74.86 9.79Q75.00 10.02 75.00 10.39L75.00 10.39L76.32 10.39L76.32 10.39Q76.32 9.80 76.12 9.37L76.12 9.37L76.12 9.37Q75.92 8.93 75.42 8.65L75.42 8.65L75.42 8.65Q74.93 8.37 74.08 8.23L74.08 8.23L74.08 8.23Q73.24 8.09 71.94 8.09L71.94 8.09L71.94 8.09Q70.63 8.09 69.71 8.21L69.71 8.21L69.71 8.21Q68.80 8.33 68.22 8.59L68.22 8.59L68.22 8.59Q67.65 8.85 67.39 9.27L67.39 9.27L67.39 9.27Q67.13 9.69 67.13 10.31L67.13 10.31L67.13 10.31Q67.13 10.76 67.21 11.15L67.21 11.15L67.21 11.15Q67.29 11.53 67.49 11.80L67.49 11.80L67.49 11.80Q67.69 12.06 68.03 12.22L68.03 12.22L68.03 12.22Q68.37 12.37 68.88 12.46L68.88 12.46L68.88 12.46Q69.38 12.54 70.09 12.57L70.09 12.57L70.09 12.57Q70.79 12.60 71.72 12.60Z"></path></g><!----><g data-v-423bf9ae="" id="a05c993c-a68b-4fe5-a2e2-a15ab8c2ef21" transform="matrix(1.3019775103463598,0,0,1.3019775103463598,-5.305976364391427,-19.55748087496383)" stroke="none" fill="black"><path d="M95.207 22.934a1.05 1.05 0 0 0-.335-.748c-10.453-9.696-26.515-9.42-36.563.628l-24.862 24.86-.189.189-.056.056L5.099 76.024a1.045 1.045 0 0 0 0 1.478l6.41 6.409a1.046 1.046 0 0 0 1.48 0l24.159-24.158L47.253 69.86a1.046 1.046 0 0 0 1.48 0l10.599-10.599.001-.001 1.369-1.37L72.89 45.704h.001l.848-.871L79.547 39h-.123L83 35.349v-.002l11.777-11.654c.202-.201.435-.475.43-.759zM12.248 81.693l-4.931-4.93L33.72 50.361l2.419 7.442-23.891 23.89zm39.689-17.996l-1.889-1.889a1.513 1.513 0 0 1-.002-2.135l.085-.085c.285-.285.664-.441 1.067-.441s.782.157 1.068.442l1.889 1.89-2.218 2.218zm6.657-6.655l-1.89-1.889a1.513 1.513 0 0 1-.001-2.138l.082-.081a1.499 1.499 0 0 1 1.069-.443c.403 0 .783.157 1.068.442l1.89 1.89-2.218 2.219zm7.951-7.952l-1.296 1.296-1.89-1.891a1.507 1.507 0 0 1 .002-2.138l.08-.08c.285-.285.664-.442 1.067-.442s.783.157 1.069.442l1.889 1.89-.921.923zm5.606-5.606l-1.891-1.89c-.285-.285-.442-.664-.442-1.068s.157-.783.445-1.07l.079-.08a1.498 1.498 0 0 1 1.069-.442c.403 0 .783.157 1.068.442l1.89 1.89-2.218 2.218zm6.657-6.656l-1.891-1.89c-.285-.285-.442-.664-.442-1.068s.157-.783.44-1.066l.086-.085a1.496 1.496 0 0 1 1.067-.442 1.5 1.5 0 0 1 1.067.442l1.891 1.89-2.218 2.219zm3.697-3.698l-1.89-1.89c-1.359-1.361-3.738-1.357-5.092-.002l-.085.084c-.681.681-1.055 1.585-1.055 2.547s.374 1.867 1.055 2.547l1.89 1.89-1.479 1.48-1.89-1.891c-1.36-1.361-3.731-1.362-5.098.002l-.079.08c-.681.681-1.055 1.585-1.055 2.547s.374 1.867 1.055 2.547l1.89 1.89-1.726 1.726-1.89-1.89c-1.361-1.361-3.732-1.363-5.096.001l-.08.08a3.58 3.58 0 0 0-1.056 2.548c0 .962.375 1.867 1.056 2.546l1.89 1.89-1.479 1.479-1.89-1.89c-1.362-1.36-3.734-1.36-5.095.001l-.082.082a3.608 3.608 0 0 0 0 5.095l1.89 1.889-1.48 1.48-1.889-1.89c-1.362-1.362-3.738-1.359-5.092-.004l-.085.085a3.608 3.608 0 0 0 0 5.095l1.89 1.89-2.465 2.465-9.621-9.62a1.027 1.027 0 0 0-.045-.256l-2.947-9.064 24.408-24.407c8.992-8.994 23.222-9.479 32.849-1.295L82.505 33.13z"></path><circle cx="30.737" cy="58.522" r="1.22"></circle><circle cx="25.561" cy="63.698" r="1.22"></circle><circle cx="19.89" cy="69.368" r="1.22"></circle><circle cx="14.96" cy="74.298" r="1.22"></circle></g><!----></svg>