<svg data-v-423bf9ae="" xmlns="http://www.w3.org/2000/svg" viewBox="0 0 437 90" class="iconLeft"><!----><!----><!----><g data-v-423bf9ae="" id="39f11a2c-f2fb-4717-927b-d2ffaf9d2548" fill="black" transform="matrix(5.865102354978818,0,0,5.865102354978818,106.77304466649002,-4.002930970809608)"><path d="M0.55 11.42L0.55 11.42L0.55 11.42Q0.55 10.05 1.85 9.43L1.85 9.43L1.85 9.43Q3.16 8.82 4.83 8.78L4.83 8.78L4.83 8.50L4.83 8.50Q4.83 7.88 4.52 7.62L4.52 7.62L4.52 7.62Q4.20 7.36 3.64 7.36L3.64 7.36L3.64 7.36Q3.25 7.36 2.94 7.47L2.94 7.47L2.94 7.47Q2.64 7.58 2.42 7.73L2.42 7.73L2.42 7.73Q2.19 7.88 2.02 8.03L2.02 8.03L2.02 8.03Q1.70 8.30 1.50 8.05L1.50 8.05L0.93 7.36L0.93 7.36Q0.72 7.10 1.03 6.82L1.03 6.82L1.03 6.82Q1.27 6.61 1.59 6.45L1.59 6.45L1.59 6.45Q1.91 6.30 2.43 6.16L2.43 6.16L2.43 6.16Q2.96 6.02 3.80 6.02L3.80 6.02L3.80 6.02Q5.22 6.02 5.98 6.67L5.98 6.67L5.98 6.67Q6.75 7.33 6.75 8.61L6.75 8.61L6.75 12.92L6.75 12.92Q6.75 13.33 6.34 13.33L6.34 13.33L5.22 13.33L5.22 13.33Q4.85 13.33 4.85 12.92L4.85 12.92L4.85 12.71L4.83 12.71L4.83 12.71Q4.43 13.10 3.87 13.29L3.87 13.29L3.87 13.29Q3.30 13.47 2.83 13.47L2.83 13.47L2.83 13.47Q1.71 13.47 1.13 12.92L1.13 12.92L1.13 12.92Q0.55 12.37 0.55 11.42ZM2.57 11.38L2.57 11.38L2.57 11.38Q2.57 11.61 2.67 11.79L2.67 11.79L2.67 11.79Q2.76 11.96 2.97 12.04L2.97 12.04L2.97 12.04Q3.17 12.13 3.42 12.13L3.42 12.13L3.42 12.13Q3.77 12.13 4.10 12.03L4.10 12.03L4.10 12.03Q4.43 11.94 4.83 11.58L4.83 11.58L4.83 10.10L4.83 10.10Q3.68 10.23 3.29 10.43L3.29 10.43L3.29 10.43Q2.91 10.64 2.74 10.86L2.74 10.86L2.74 10.86Q2.57 11.07 2.57 11.38ZM10.11 13.33L9.02 13.33L9.02 13.33Q8.61 13.33 8.61 12.92L8.61 12.92L8.61 3.65L8.61 3.65Q8.61 3.24 9.02 3.24L9.02 3.24L10.11 3.24L10.11 3.24Q10.52 3.24 10.52 3.65L10.52 3.65L10.52 8.67L10.52 8.67Q10.52 8.95 10.49 9.22L10.49 9.22L10.52 9.22L12.69 6.43L12.69 6.43Q12.91 6.15 13.22 6.15L13.22 6.15L14.34 6.15L14.34 6.15Q14.97 6.15 14.55 6.66L14.55 6.66L12.49 9.15L14.88 12.82L14.88 12.82Q15.21 13.33 14.67 13.33L14.67 13.33L13.50 13.33L13.50 13.33Q13.16 13.33 12.94 12.97L12.94 12.97L11.39 10.48L10.52 11.53L10.52 12.92L10.52 12.92Q10.52 13.33 10.11 13.33L10.11 13.33ZM17.73 13.33L16.64 13.33L16.64 13.33Q16.23 13.33 16.23 12.92L16.23 12.92L16.23 3.65L16.23 3.65Q16.23 3.24 16.64 3.24L16.64 3.24L17.73 3.24L17.73 3.24Q18.14 3.24 18.14 3.65L18.14 3.65L18.14 8.67L18.14 8.67Q18.14 8.95 18.12 9.22L18.12 9.22L18.14 9.22L20.31 6.43L20.31 6.43Q20.53 6.15 20.84 6.15L20.84 6.15L21.96 6.15L21.96 6.15Q22.59 6.15 22.18 6.66L22.18 6.66L20.11 9.15L22.50 12.82L22.50 12.82Q22.83 13.33 22.29 13.33L22.29 13.33L21.12 13.33L21.12 13.33Q20.78 13.33 20.56 12.97L20.56 12.97L19.01 10.48L18.14 11.53L18.14 12.92L18.14 12.92Q18.14 13.33 17.73 13.33L17.73 13.33ZM25.35 13.33L24.26 13.33L24.26 13.33Q23.85 13.33 23.85 12.92L23.85 12.92L23.85 6.56L23.85 6.56Q23.85 6.15 24.26 6.15L24.26 6.15L25.34 6.15L25.34 6.15Q25.75 6.15 25.75 6.56L25.75 6.56L25.75 6.96L25.78 6.96L25.78 6.96Q26.09 6.42 26.58 6.22L26.58 6.22L26.58 6.22Q27.06 6.02 27.75 6.02L27.75 6.02L27.75 6.02Q28.81 6.02 29.51 6.69L29.51 6.69L29.51 6.69Q30.21 7.36 30.21 9.13L30.21 9.13L30.21 12.92L30.21 12.92Q30.21 13.33 29.80 13.33L29.80 13.33L28.70 13.33L28.70 13.33Q28.29 13.33 28.29 12.92L28.29 12.92L28.29 9.63L28.29 9.63Q28.29 8.13 28.09 7.75L28.09 7.75L28.09 7.75Q27.88 7.36 27.21 7.36L27.21 7.36L27.21 7.36Q26.49 7.36 26.13 7.91L26.13 7.91L26.13 7.91Q25.76 8.47 25.76 10.23L25.76 10.23L25.76 12.92L25.76 12.92Q25.76 13.33 25.35 13.33L25.35 13.33ZM33.56 13.33L32.46 13.33L32.46 13.33Q32.05 13.33 32.05 12.92L32.05 12.92L32.05 6.56L32.05 6.56Q32.05 6.15 32.46 6.15L32.46 6.15L33.56 6.15L33.56 6.15Q33.97 6.15 33.97 6.56L33.97 6.56L33.97 12.92L33.97 12.92Q33.97 13.33 33.56 13.33L33.56 13.33ZM33.56 5.10L32.46 5.10L32.46 5.10Q32.05 5.10 32.05 4.69L32.05 4.69L32.05 3.81L32.05 3.81Q32.05 3.40 32.46 3.40L32.46 3.40L33.56 3.40L33.56 3.40Q33.97 3.40 33.97 3.81L33.97 3.81L33.97 4.69L33.97 4.69Q33.97 5.10 33.56 5.10L33.56 5.10ZM37.17 12.87L35.18 6.69L35.18 6.69Q35.01 6.15 35.41 6.15L35.41 6.15L36.63 6.15L36.63 6.15Q36.96 6.15 37.04 6.50L37.04 6.50L38.10 10.51L38.10 10.51Q38.19 10.84 38.25 11.17L38.25 11.17L38.25 11.17Q38.31 11.50 38.32 11.70L38.32 11.70L38.36 11.70L38.36 11.70Q38.38 11.50 38.44 11.17L38.44 11.17L38.44 11.17Q38.49 10.84 38.58 10.51L38.58 10.51L39.64 6.50L39.64 6.50Q39.73 6.15 40.05 6.15L40.05 6.15L41.28 6.15L41.28 6.15Q41.67 6.15 41.50 6.69L41.50 6.69L39.52 12.87L39.52 12.87Q39.38 13.33 39.02 13.33L39.02 13.33L37.67 13.33L37.67 13.33Q37.31 13.33 37.17 12.87L37.17 12.87ZM42.33 9.74L42.33 9.74L42.33 9.74Q42.33 8.01 43.20 7.01L43.20 7.01L43.20 7.01Q44.06 6.02 45.64 6.02L45.64 6.02L45.64 6.02Q47.48 6.02 48.36 6.96L48.36 6.96L48.36 6.96Q49.25 7.90 49.25 9.99L49.25 9.99L49.25 9.99Q49.25 10.40 48.87 10.40L48.87 10.40L44.36 10.40L44.36 10.40Q44.47 11.54 44.92 11.83L44.92 11.83L44.92 11.83Q45.37 12.13 45.96 12.13L45.96 12.13L45.96 12.13Q46.53 12.13 46.83 11.98L46.83 11.98L46.83 11.98Q47.13 11.83 47.34 11.57L47.34 11.57L47.34 11.57Q47.57 11.27 47.91 11.47L47.91 11.47L48.60 11.89L48.60 11.89Q49 12.13 48.71 12.48L48.71 12.48L48.71 12.48Q48.30 12.97 47.74 13.22L47.74 13.22L47.74 13.22Q47.17 13.47 45.96 13.47L45.96 13.47L45.96 13.47Q44.00 13.47 43.17 12.47L43.17 12.47L43.17 12.47Q42.33 11.47 42.33 9.74ZM44.37 9.04L44.37 9.04L47.34 9.04L47.34 9.04Q47.34 8.30 46.97 7.83L46.97 7.83L46.97 7.83Q46.60 7.36 45.79 7.36L45.79 7.36L45.79 7.36Q45.15 7.36 44.78 7.81L44.78 7.81L44.78 7.81Q44.40 8.26 44.37 9.04ZM50.45 12.85L50.45 12.85L50.45 12.85Q50.11 12.61 50.26 12.34L50.26 12.34L50.61 11.70L50.61 11.70Q50.80 11.36 51.19 11.62L51.19 11.62L51.19 11.62Q51.58 11.88 52.11 12.00L52.11 12.00L52.11 12.00Q52.64 12.13 53.07 12.13L53.07 12.13L53.07 12.13Q53.38 12.13 53.65 12.07L53.65 12.07L53.65 12.07Q53.92 12.00 54.10 11.83L54.10 11.83L54.10 11.83Q54.28 11.65 54.28 11.31L54.28 11.31L54.28 11.31Q54.28 11.10 54.17 10.96L54.17 10.96L54.17 10.96Q54.07 10.81 53.89 10.74L53.89 10.74L53.89 10.74Q53.72 10.66 53.53 10.62L53.53 10.62L53.53 10.62Q53.28 10.55 52.80 10.41L52.80 10.41L52.80 10.41Q52.33 10.27 51.89 10.08L51.89 10.08L51.89 10.08Q51.53 9.92 51.18 9.64L51.18 9.64L51.18 9.64Q50.84 9.35 50.68 9.00L50.68 9.00L50.68 9.00Q50.52 8.65 50.52 8.14L50.52 8.14L50.52 8.14Q50.52 7.45 50.92 6.93L50.92 6.93L50.92 6.93Q51.32 6.41 51.95 6.21L51.95 6.21L51.95 6.21Q52.59 6.02 53.54 6.02L53.54 6.02L53.54 6.02Q54.18 6.02 54.79 6.20L54.79 6.20L54.79 6.20Q55.40 6.38 55.66 6.55L55.66 6.55L55.66 6.55Q56.07 6.81 55.86 7.10L55.86 7.10L55.45 7.71L55.45 7.71Q55.25 7.98 54.83 7.75L54.83 7.75L54.83 7.75Q54.51 7.57 54.20 7.46L54.20 7.46L54.20 7.46Q53.89 7.36 53.50 7.36L53.50 7.36L53.50 7.36Q53.25 7.36 53.01 7.41L53.01 7.41L53.01 7.41Q52.77 7.46 52.60 7.62L52.60 7.62L52.60 7.62Q52.43 7.77 52.43 8.01L52.43 8.01L52.43 8.01Q52.43 8.27 52.59 8.42L52.59 8.42L52.59 8.42Q52.74 8.57 52.94 8.63L52.94 8.63L52.94 8.63Q53.14 8.70 53.33 8.76L53.33 8.76L53.33 8.76Q53.71 8.89 54.10 9.00L54.10 9.00L54.10 9.00Q54.49 9.11 54.89 9.27L54.89 9.27L54.89 9.27Q55.24 9.41 55.57 9.66L55.57 9.66L55.57 9.66Q55.90 9.91 56.05 10.30L56.05 10.30L56.05 10.30Q56.20 10.69 56.20 11.19L56.20 11.19L56.20 11.19Q56.20 11.85 55.80 12.42L55.80 12.42L55.80 12.42Q55.41 12.99 54.76 13.23L54.76 13.23L54.76 13.23Q54.11 13.47 53.25 13.47L53.25 13.47L53.25 13.47Q52.28 13.47 51.60 13.33L51.60 13.33L51.60 13.33Q50.93 13.19 50.45 12.85Z"></path></g><!----><g data-v-423bf9ae="" id="da3053d0-d028-4083-9213-e86d674b54ae" transform="matrix(1.4999808313912004,0,0,1.4999808313912004,0.0005750629911673855,1.000383948884597)" stroke="none" fill="black"><g data-name="Layer 2"><g data-name="Layer 1"><path d="M33 39.975l-1-39A1 1 0 0 0 30.288.3a38.747 38.747 0 0 0-8.211 12.317 39.751 39.751 0 0 0-2.055 23.593 1 1 0 0 0 .782.772l4.2.84V39a1 1 0 0 0-1 .917l-.946 11.343A4.487 4.487 0 0 0 24.487 60H28a5.006 5.006 0 0 0 5-5V39.987v-.012zm-6.8-3.955l-4.349-.871a37.658 37.658 0 0 1 2.076-21.764 36.572 36.572 0 0 1 6.14-9.9L30.974 39H27v-2a1 1 0 0 0-.8-.98zM31 55a3 3 0 0 1-3 3h-3.513a2.487 2.487 0 0 1-.787-4.846l.616-.205a1 1 0 0 0 .684-.866L25.92 41H31z"></path><path d="M27 43h2v2h-2zM42 48h2v2h-2zM42 53h2v2h-2z"></path><path d="M41.085 1.557L37.372.071A1 1 0 0 0 36 1v35a1 1 0 0 0 .757.97l3.243.811V39a1 1 0 0 0-1 .917l-.942 11.343A4.487 4.487 0 0 0 39.487 60H43a5.006 5.006 0 0 0 5-5V11.771a10.949 10.949 0 0 0-6.915-10.214zM46 55a3 3 0 0 1-3 3h-3.513a2.487 2.487 0 0 1-.787-4.846l.616-.205a1 1 0 0 0 .684-.866L40.92 41H46zm0-16h-4v-2a1 1 0 0 0-.757-.97L38 35.219V2.477l2.342.937A8.958 8.958 0 0 1 46 11.771z"></path><path d="M42 43h2v2h-2zM27 48h2v2h-2zM27 53h2v2h-2zM60 39.984v-.017l-1-30a1 1 0 0 0-1.8-.574 37.071 37.071 0 0 0-4.874 9.254 38.068 38.068 0 0 0-2.319 17.473 1 1 0 0 0 .546.775L54 38.618v1.345l-.95 13.3-1 .333A3 3 0 0 0 50 56.441V57a3 3 0 0 0 3 3h4a3 3 0 0 0 3-3V40zm-8.065-4.634a36.315 36.315 0 0 1 2.267-16 41.017 41.017 0 0 1 2.9-6.2L57.966 39H56v-1a1 1 0 0 0-.553-.9zM58 57a1 1 0 0 1-1 1h-4a1 1 0 0 1-1-1v-.559a1 1 0 0 1 .684-.948l1.632-.544a1 1 0 0 0 .684-.878L55.931 41H58zM11 43h2v2h-2zM11 48h2v2h-2zM11 53h2v2h-2z"></path><path d="M16 0H1a1 1 0 0 0-1 1v36a1 1 0 0 0 .858.99l6.482.926.64 1.284-.922 11.06A4.487 4.487 0 0 0 8.487 60H12a5.006 5.006 0 0 0 5-5V1a1 1 0 0 0-1-1zM2 36.133V2h13v37H9.618L8.9 37.553a1 1 0 0 0-.753-.543zM15 55a3 3 0 0 1-3 3H8.487a2.487 2.487 0 0 1-.787-4.846l.616-.205A1 1 0 0 0 9 52.083L9.92 41H15z"></path></g></g></g><!----></svg>